<?xml version="1.0" encoding="UTF-8" standalone="no"?>
<!-- Created with Inkscape (http://www.inkscape.org/) -->

<svg
   xmlns:dc="http://purl.org/dc/elements/1.1/"
   xmlns:cc="http://creativecommons.org/ns#"
   xmlns:rdf="http://www.w3.org/1999/02/22-rdf-syntax-ns#"
   xmlns:svg="http://www.w3.org/2000/svg"
   xmlns="http://www.w3.org/2000/svg"
   xmlns:sodipodi="http://sodipodi.sourceforge.net/DTD/sodipodi-0.dtd"
   xmlns:inkscape="http://www.inkscape.org/namespaces/inkscape"
   id="svg3004"
   version="1.1"
   inkscape:version="0.48.1 r9760"
   width="160.80266"
   height="111.081"
   xml:space="preserve"
   sodipodi:docname="jena-logo-icon.svg"
   inkscape:export-filename="/home/afs/jena-logo-icon.png"
   inkscape:export-xdpi="90"
   inkscape:export-ydpi="90"><metadata
     id="metadata3010"><rdf:RDF><cc:Work
         rdf:about=""><dc:format>image/svg+xml</dc:format><dc:type
           rdf:resource="http://purl.org/dc/dcmitype/StillImage" /><dc:title></dc:title></cc:Work></rdf:RDF></metadata><defs
     id="defs3008"><clipPath
       clipPathUnits="userSpaceOnUse"
       id="clipPath3020"><path
         d="m 0,0 1507,0 0,888.648 -1507,0 L 0,0 z"
         id="path3022"
         inkscape:connector-curvature="0" /></clipPath></defs><sodipodi:namedview
     pagecolor="#000000"
     bordercolor="#666666"
     borderopacity="1"
     objecttolerance="10"
     gridtolerance="10"
     guidetolerance="10"
     inkscape:pageopacity="0"
     inkscape:pageshadow="2"
     inkscape:window-width="1167"
     inkscape:window-height="1061"
     id="namedview3006"
     showgrid="false"
     inkscape:zoom="2.4037813"
     inkscape:cx="118.64182"
     inkscape:cy="62.413693"
     inkscape:window-x="0"
     inkscape:window-y="25"
     inkscape:window-maximized="0"
     inkscape:current-layer="g3016"
     fit-margin-top="0"
     fit-margin-left="0"
     fit-margin-right="0"
     fit-margin-bottom="0"
     showborder="false"
     borderlayer="false"
     inkscape:showpageshadow="false" /><g
     id="g3012"
     inkscape:groupmode="layer"
     inkscape:label="ink_ext_XXXXXX"
     transform="matrix(1.25,0,0,-1.25,1.5632832e-4,111.081)"><g
       id="g3014"
       transform="scale(0.1,0.1)"><g
         id="g3016"><g
           id="g3102"
           inkscape:export-filename="/home/afs/jena-logo-icon.png"
           inkscape:export-xdpi="90"
           inkscape:export-ydpi="90"><path
             d="m 481.465,399.004 0,-253.563 c 0,-30.296 -2.117,-52.8824 -6.328,-67.773 C 470.918,60.7422 463.746,46.4453 453.617,34.7656 433.867,11.582 407.668,0 375,0 350.273,0 327.168,6.4375 305.664,19.2852 l 28.957,50.5117 C 349.004,60.1445 362.465,55.3203 375,55.3203 c 17.594,0 29.785,6.6836 36.562,20.0625 7.11,13.3555 10.668,36.7192 10.668,70.0582 l 0,253.563 59.235,0"
             style="fill:#1a80b9;fill-opacity:1;fill-rule:nonzero;stroke:none"
             id="path3024"
             inkscape:connector-curvature="0" /><path
             d="m 697.574,259.348 c -7.953,30.804 -27.179,46.214 -57.648,46.214 -6.946,0 -13.465,-1.082 -19.559,-3.218 -6.09,-2.133 -11.637,-5.215 -16.625,-9.242 -4.996,-4.032 -9.269,-8.86 -12.828,-14.504 -3.559,-5.653 -6.266,-12.075 -8.125,-19.25 l 114.785,0 z m 58.66,-46.868 -177.25,0 c 1.516,-20.156 8.118,-36.191 19.801,-48.105 11.676,-11.758 26.668,-17.637 44.957,-17.637 14.219,0 25.977,3.367 35.293,10.11 9.141,6.738 19.555,19.199 31.238,37.41 l 48.254,-26.961 c -7.457,-12.719 -15.328,-23.613 -23.629,-32.688 -8.3,-9.074 -17.179,-16.535 -26.656,-22.382 -9.48,-5.86 -19.722,-10.125 -30.726,-12.8403 -11.008,-2.707 -22.946,-4.0742 -35.813,-4.0742 -36.906,0 -66.531,11.8675 -88.879,35.5935 -22.355,23.906 -33.523,55.61 -33.523,95.11 0,39.156 10.832,70.871 32.508,95.117 21.836,23.894 50.781,35.847 86.843,35.847 36.403,0 65.188,-11.644 86.348,-34.914 20.992,-23.105 31.488,-55.132 31.488,-96.082 l -0.254,-13.504"
             style="fill:#1a80b9;fill-opacity:1;fill-rule:nonzero;stroke:none"
             id="path3026"
             inkscape:connector-curvature="0" /><path
             d="m 787.148,349.824 57.286,0 0,-22.867 c 20.039,20.016 42.636,30.023 67.785,30.023 28.886,0 51.386,-9.07 67.527,-27.207 13.938,-15.425 20.904,-40.597 20.904,-75.515 l 0,-151.785 -57.279,0 0,138.269 c 0,24.399 -3.41,41.266 -10.226,50.574 -6.649,9.496 -18.75,14.246 -36.309,14.246 -19.09,0 -32.637,-6.281 -40.652,-18.808 -7.844,-12.379 -11.75,-33.981 -11.75,-64.82 l 0,-119.461 -57.286,0 0,247.351"
             style="fill:#1a80b9;fill-opacity:1;fill-rule:nonzero;stroke:none"
             id="path3028"
             inkscape:connector-curvature="0" /><path
             d="m 1093.1,227.285 c 0,-23.711 6.35,-43.027 19.06,-57.93 13.05,-15.078 29.49,-22.617 49.32,-22.617 21.17,0 38.29,7.278 51.35,21.856 13.04,15.066 19.57,34.211 19.57,57.429 0,23.211 -6.53,42.352 -19.57,57.422 -13.06,14.739 -30,22.117 -50.84,22.117 -19.66,0 -36.1,-7.457 -49.32,-22.371 -13.05,-15.07 -19.57,-33.714 -19.57,-55.906 z m 136.05,122.539 57.27,0 0,-247.351 -57.27,0 0,25.906 c -23.62,-22.051 -49.01,-33.0665 -76.18,-33.0665 -34.31,0 -62.66,12.3755 -85.07,37.1285 -22.26,25.262 -33.38,56.789 -33.38,94.602 0,37.121 11.12,68.051 33.38,92.805 22.23,24.757 50.09,37.132 83.55,37.132 28.87,0 54.77,-11.96 77.7,-35.855 l 0,28.699"
             style="fill:#1a80b9;fill-opacity:1;fill-rule:nonzero;stroke:none"
             id="path3030"
             inkscape:connector-curvature="0" /><path
             d="m 246.496,333.113 c 0,38.629 -5.566,55.996 -35.07,72.699 -28.895,16.333 -173.0862,68.79 -195.4533,95.008 -39.543,46.371 1.1796,108.598 47.7343,104.625 24.6836,-2.117 40.863,-16.386 55.895,-31.507 11.964,-12.043 73.73,-82.422 92.918,-101.004 15.21,-14.707 32.753,-22.657 54.562,-25.879 20.793,-3.075 38.547,1.566 53.887,11.125 25.656,16.011 44.543,45.8 59.531,76.234 17,34.516 44.031,55.356 75.84,52.816 53.41,-4.269 73.262,-56.058 58.613,-94.82 -5.898,-15.586 -31.367,-38.773 -52.824,-45.871 -18.277,-6.047 -90.223,-31.367 -100.594,-35.555 -38.98,-15.73 -47.597,-32.086 -47.597,-77.847 0,-19.504 20.519,-73.18 20.519,-95.524 0,-39.617 -20.098,-65.465 -53.109,-65.465 -32.684,0 -55.379,25.918 -55.379,65.434 0,22.98 20.527,76.035 20.527,95.531"
             style="fill:#231f20;fill-opacity:1;fill-rule:nonzero;stroke:none"
             id="path3032"
             inkscape:connector-curvature="0" /><path
             d="m 480.93,727.688 c 0,-38.633 5.57,-56.004 35.062,-72.688 28.91,-16.328 173.102,-68.793 195.469,-95.016 39.543,-46.367 -1.188,-108.593 -47.746,-104.629 -24.688,2.122 -40.863,16.399 -55.887,31.52 -11.969,12.031 -73.73,82.418 -92.91,100.992 -15.219,14.711 -32.77,22.66 -54.57,25.871 -20.793,3.086 -38.551,-1.554 -53.891,-11.117 -25.656,-16.016 -44.543,-45.801 -59.527,-76.223 -16.992,-34.527 -44.028,-55.359 -75.836,-52.82 -53.414,4.258 -73.266,56.051 -58.614,94.824 5.903,15.578 31.368,38.762 52.817,45.86 18.273,6.043 90.234,31.359 100.601,35.55 38.977,15.747 47.59,32.098 47.59,77.856 0,19.496 -20.519,73.184 -20.519,95.531 0,39.61 20.097,65.449 53.109,65.449 32.684,0 55.383,-25.914 55.383,-65.429 0,-22.985 -20.531,-76.031 -20.531,-95.531"
             style="fill:#1a80b9;fill-opacity:1;fill-rule:nonzero;stroke:none"
             id="path3076"
             inkscape:connector-curvature="0" /></g></g></g></g></svg>